<svg xmlns="http://www.w3.org/2000/svg" viewBox="0 0 800 85.15"><path fill="gold" d="M31.625 85.086c-.56-.18-2.052-.884-3.205-1.512a43 43 0 0 1-5.587-3.577c-2.137-1.594-4.921-4.194-7.19-6.715-1.106-1.229-2.888-3.638-4.09-5.53-.957-1.505-1.62-2.677-2.287-4.037-1.291-2.635-2.125-4.77-2.886-7.385-.57-1.962-1.15-4.856-1.362-6.801-.117-1.077-.137-1.495-.137-2.823 0-1.641.09-2.788.341-4.364.197-1.238.746-3.208 1.23-4.416l.234-.584-.422-.241C3.69 35.63 1.639 33.628.648 31.614c-.54-1.094-.717-2.02-.563-2.918.266-1.548.763-2.666 1.726-3.884.376-.476 1.344-1.431 1.893-1.869 1.483-1.182 3.541-2.321 5.373-2.974 1.424-.506 4.207-1.318 4.978-1.452.22-.038.25-.14.766-2.552.188-.879.51-2.435.717-3.457.207-1.023.43-2.066.495-2.319.71-2.75 1.905-5.013 3.517-6.666.975-1 1.897-1.672 3.08-2.248 1.296-.632 2.596-.997 4.234-1.19 1.83-.216 5.322.023 7.498.512 1.148.259 3.106.889 4.217 1.358 1.366.576 2.92 1.375 3.958 2.033.397.252.565.329.719.33.066 0 .602-.12 1.19-.269 1.268-.318 1.537-.36 2.168-.333.776.033 2.347.255 2.847.402.605.178 1.336.77 1.944 1.574.475.629.942 1.719 1.113 2.597.171.882.2 1.192.216 2.404.018 1.4-.006 2.155-.263 8.078-.111 2.553-.21 4.902-.222 5.22a12 12 0 0 1-.037.687c-.016.104-.01.11.13.147.912.238 7.728 2.455 8.822 2.87 1.23.465 2.014.97 2.43 1.563.607.864.312 1.916-.847 3.02-1.073 1.023-3.039 2.236-5.422 3.346-.523.244-.688.336-.684.38.002.032.121.308.264.613.676 1.44 1.108 2.687 1.55 4.479.336 1.355.565 3.326.601 5.168.047 2.358-.218 4.558-.944 7.856-.45 2.04-1.285 4.673-2.122 6.682-.583 1.4-1.555 3.445-2.109 4.438a61 61 0 0 1-2.136 3.485c-.986 1.477-2.6 3.603-3.458 4.557-1.135 1.262-2.908 3.051-4.052 4.089-1.92 1.742-3.304 2.821-5.476 4.27-1.7 1.134-4.232 2.523-5.797 3.18-.806.339-.993.376-1.337.265zm1.051-3.733a56 56 0 0 0 3.489-1.96c1.951-1.19 4.966-3.565 6.912-5.444.608-.588 1.877-1.957 2.705-2.92 1.134-1.317 2.545-3.207 3.396-4.548a50.5 50.5 0 0 0 3.293-6.07 35 35 0 0 0 2.239-6.682c.703-3.063.889-4.563.889-7.176 0-1.61-.063-2.497-.257-3.629-.208-1.213-.77-3.17-1.221-4.258-.264-.634-.635-1.396-.68-1.396-.022 0-.412.13-.866.289a62 62 0 0 1-4.763 1.479c-2.156.589-3.175.812-5.577 1.222-1.93.329-4.3.565-6.342.632-.653.021-1.4.069-3.197.203a68 68 0 0 1-3.808.192c-1.683.048-4.911.018-5.883-.056-2.336-.176-5.656-.574-7.79-.934-1.193-.202-2.781-.63-4.486-1.21l-.906-.308c-.066-.022-.157.2-.432 1.041-.39 1.197-.692 2.391-.835 3.299-.175 1.113-.223 1.848-.224 3.417 0 2.147.124 3.493.495 5.356.477 2.394.906 3.998 1.585 5.934.76 2.165 2.051 4.845 3.539 7.346.886 1.49 1.387 2.242 2.355 3.536 1.214 1.624 1.884 2.42 3.506 4.166 1.563 1.683 3.536 3.388 6.1 5.27 1.388 1.02 3.14 2.07 5.441 3.262.327.17.602.308.61.309.007 0 .328-.163.713-.362zm-1.306-5.985c-1.474-.18-2.844-.593-3.553-1.07-.645-.434-1.51-1.18-1.846-1.594-.442-.543-.932-1.344-.992-1.621-.03-.14.031-.369.143-.533.114-.166.39-.328.562-.328.248 0 .384.085.993.625.478.424.56.481 1.02.702.983.472 1.817.696 3.102.833.965.102 2.193.056 3.227-.12a8 8 0 0 0 2.99-1.156c1.076-.692 1.378-.85 1.62-.85.212 0 .304.039.485.205.275.253.334.621.146.899-.294.431-1.501 1.63-2.313 2.296-.661.542-.982.758-1.537 1.036-.833.416-1.422.576-2.442.662-.405.034-1.372.042-1.605.014zM25.623 65.22c-1.304-.062-1.845-.135-2.862-.388-1.222-.304-1.963-.566-3.232-1.141a10.4 10.4 0 0 1-2.237-1.325c-1.499-1.124-3.225-2.883-4.063-4.14-.285-.426-.79-1.418-1.142-2.236a13.1 13.1 0 0 1-1.054-4.131c-.065-.67-.075-2.118-.018-2.588.032-.264.307-1.366.352-1.411.006-.007.611-.03 1.345-.054 3.049-.095 4.736.161 7.053 1.073 1.59.625 2.735 1.252 3.655 2 .712.579 2.202 1.991 2.756 2.611.845.946 1.552 2.168 2.225 3.844.617 1.538.838 2.495.982 4.265.053.64.023 2.2-.047 2.506-.14.61-.427.913-.993 1.045-.42.099-1.502.126-2.72.07zm10.253.018c-.493-.087-.639-.148-.873-.364-.2-.185-.302-.364-.39-.691-.062-.233-.074-.391-.089-1.18a15.7 15.7 0 0 1 .28-3.374c.221-1.096.779-2.59 1.461-3.91.706-1.368 1.053-1.835 2.203-2.968 1.592-1.568 2.474-2.285 3.52-2.864a23 23 0 0 1 2.195-1.016c2.319-.906 3.996-1.16 7.036-1.065.733.023 1.338.047 1.345.054.045.045.319 1.147.35 1.411.022.18.04.709.038 1.177-.004 2.506-.471 4.38-1.695 6.793-.178.351-.428.795-.556.986-1.093 1.638-3.427 3.85-5.147 4.876-.875.522-2.664 1.266-3.83 1.592-.834.234-1.953.402-3.298.495-.537.037-2.413.072-2.55.048zm-.561-13.93c-.365-.135-.554-.52-.463-.944.107-.497.618-1.406 1.242-2.209.87-1.12 1.805-2.024 3.092-2.991a8.7 8.7 0 0 1 1.706-1.044c1.132-.549 2.256-.95 3.315-1.186 1.095-.244 1.828-.337 2.687-.34.655-.002.723.015.894.217.126.15.17.32.152.577-.038.53-.31.747-1.496 1.192-1.826.686-2.985 1.247-4.753 2.302-1.336.796-2.643 1.768-4.183 3.107-1.178 1.025-1.576 1.302-1.922 1.34a.7.7 0 0 1-.271-.02zm-7.208-.035c-.293-.106-.696-.408-1.582-1.184-1.43-1.252-2.786-2.291-3.856-2.954a46 46 0 0 0-2.265-1.287c-.76-.397-1.896-.89-2.908-1.264-.896-.332-1.277-.56-1.432-.859-.086-.168-.103-.538-.033-.723a.67.67 0 0 1 .436-.396c.309-.084 1.628.013 2.593.19 1.401.26 2.616.663 3.979 1.324.703.34 1.06.56 1.705 1.044 1.863 1.4 3.27 2.954 4.041 4.466.317.62.378.869.285 1.177-.115.385-.574.607-.963.466m.053-14.717c8.714-.248 15.12-1.326 18.887-3.179.973-.478 1.914-1.142 2.318-1.636l.114-.14-.604-.591a23 23 0 0 0-2.22-1.9l-.548-.417-.254.024c-.14.013-.668.137-1.179.277-2.45.671-5.207 1.297-6.933 1.575-2.653.428-4.313.592-6.931.685-1.687.06-3.345-.027-5.594-.295-2.438-.29-4.249-.678-5.644-1.21-.409-.156-.46-.168-.665-.152-.518.04-1.859.598-2.567 1.07-.852.567-1.35 1.178-1.454 1.785-.158.926.663 1.878 2.375 2.75.789.403 1.305.6 2.174.828 1.228.324 1.673.38 3.451.442.833.028 1.789.064 2.126.08.901.041 1.798.042 3.149.004z"/><path fill="#58a6ff" d="M88.074 27.807h9.702l10.909 30.097q.345 1.035.603 2.328.345 1.337.56 2.544.26 1.423.475 2.89h.733l-.13-.95q-.129-.948-.301-2.37-.13-1.467-.302-3.235-.13-1.768-.13-3.406V27.807h6.986V73.08h-9.702L96.784 42.898q-.474-1.25-.776-2.587t-.517-2.501q-.259-1.337-.431-2.673h-.733q.172 1.509.345 3.233.129 1.423.258 3.191.13 1.725.13 3.536v27.984h-6.986zm52.475 45.921q-3.363 0-6.21-.949-2.802-.991-4.742-2.76-1.94-1.767-3.018-4.268-1.078-2.544-1.078-5.605v-8.753q0-3.062 1.078-5.606 1.078-2.5 3.018-4.268t4.743-2.717q2.846-.948 6.209-.948 3.406 0 6.209 1.034 2.76.949 4.7 2.674 1.983 1.768 3.018 4.312 1.078 2.5 1.078 5.562v6.295h-22.249v2.285q0 3.45 1.897 5.39 1.984 1.984 5.347 1.984 2.587 0 4.355-.776 1.854-.82 2.587-2.329h7.762q-.561 2.156-1.898 3.88-1.336 1.769-3.277 3.02-1.897 1.206-4.355 1.896-2.371.647-5.174.647zm-7.244-21.257h14.488v-1.035q0-3.45-1.854-5.347-1.897-1.94-5.39-1.94-3.363 0-5.346 1.94-1.898 1.898-1.898 5.304zm31.52 20.611v-7.158h12.418V45.615H166.42v-7.114h18.412v27.423h10.003v7.157zm10.133-43.938q0-1.811 1.207-2.975 1.25-1.164 3.277-1.164h1.639q2.027 0 3.234 1.164 1.25 1.164 1.25 2.975 0 1.897-1.25 3.018-1.294 1.121-3.277 1.121h-1.596q-2.026 0-3.277-1.12-1.207-1.122-1.207-3.019m27.208-1.94h7.848V52.17h5.562L224.2 38.5h8.839l-10.736 16.86 10.909 17.722H224.2l-8.623-14.186h-5.563v14.186h-7.847zm38.117 45.92v-7.157h12.418V45.658h-10.866v-7.115h18.412v27.423h10.047v7.158zm10.133-43.937q0-1.854 1.207-2.976 1.25-1.207 3.277-1.207h1.639q1.983 0 3.19 1.207 1.251 1.121 1.251 2.976t-1.25 3.018q-1.25 1.121-3.277 1.121H254.9q-2.026 0-3.277-1.121-1.207-1.164-1.207-3.018m46.05 13.324H286.42l8.193-19.576h6.899zm34.107 31.26h-2.5q-6.124 0-9.789-2.457-3.578-2.5-4.14-7.028h8.064q.388 1.638 1.94 2.587 1.596.862 3.924.862h2.501q2.975 0 4.57-1.12 1.64-1.208 1.64-3.192 0-3.492-5.39-4.225l-4.916-.56q-5.907-.777-8.753-3.278t-2.846-7.244q0-4.915 3.407-7.545 3.492-2.63 9.917-2.63h2.587q5.735 0 9.184 2.457 3.536 2.372 4.183 6.727h-8.107q-.302-1.466-1.724-2.286-1.423-.862-3.536-.862h-2.587q-5.563 0-5.563 3.88 0 3.364 4.657 3.924l5.131.69q6.166.733 9.141 3.407 2.933 2.544 2.933 7.287 0 5.088-3.58 7.847-3.578 2.76-10.347 2.76zm60.452-45.92h15.695q3.407 0 6.166 1.034 2.846.95 4.786 2.76 1.984 1.768 3.062 4.355 1.034 2.501 1.034 5.649 0 3.061-1.034 5.648-1.078 2.544-3.105 4.355-1.94 1.768-4.743 2.76-2.76.948-6.166.948h-7.804v17.808h-7.891zm15.695 6.64h-7.804v14.143h7.804q3.277 0 5.174-1.854 1.898-1.94 1.898-5.174 0-3.191-1.898-5.132-1.897-1.983-5.174-1.983m20.395 28.932q0-2.587.949-4.57.948-2.07 2.673-3.536 1.768-1.423 4.226-2.2 2.544-.819 5.605-.819h8.71v-2.932q0-2.414-1.811-3.794-1.768-1.466-4.915-1.466-2.588 0-4.355.949-1.768.948-2.286 2.587h-7.718q.82-4.528 4.657-7.115 3.837-2.63 9.701-2.63 3.32 0 6.037.82 2.716.775 4.614 2.284 1.897 1.423 2.889 3.58 1.078 2.069 1.078 4.656v23.888h-7.46v-6.813h-.474q-.647 3.407-3.622 5.433-2.89 2.027-7.244 2.027-5.174 0-8.236-2.803-3.018-2.803-3.018-7.546zm13.97 4.182q3.579 0 5.864-1.724 2.329-1.768 2.329-4.398v-4.01h-8.624q-2.63 0-4.183 1.293-1.509 1.337-1.509 3.708 0 2.415 1.596 3.795 1.638 1.336 4.527 1.336m24.405-10.693v-5.605q0-3.018.82-5.476.862-2.5 2.457-4.269 1.552-1.768 3.795-2.716 2.199-.949 4.915-.949 3.88 0 6.425 1.897 2.5 1.811 3.147 5.045h.432v-6.295h7.545v32.425q0 2.889-.992 5.217-.991 2.285-2.888 3.924-1.898 1.638-4.614 2.5-2.63.906-5.907.906h-9.27v-6.554h9.27q3.018 0 4.786-1.595 1.768-1.552 1.768-4.398v-.69l.215-6.899h-.345q-.646 3.19-3.234 5.088-2.5 1.811-6.338 1.811-2.716 0-4.915-.949-2.243-.905-3.795-2.673-1.595-1.768-2.458-4.226-.819-2.5-.819-5.519zm7.934-5.433v5.218q0 3.234 1.81 5.045 1.855 1.767 5.046 1.767 3.147 0 5.001-1.854 1.898-1.81 1.898-4.958v-5.218q0-3.147-1.898-4.958-1.854-1.811-5.001-1.811-3.191 0-5.045 1.81-1.811 1.812-1.811 4.96m45.274 22.292q-3.406 0-6.252-.948-2.76-1.035-4.743-2.803-1.94-1.725-3.019-4.269-1.078-2.5-1.078-5.605v-8.71q0-3.104 1.078-5.605t3.019-4.269q1.983-1.768 4.743-2.716 2.846-.949 6.252-.949t6.166.992q2.76.948 4.7 2.716 1.983 1.768 3.061 4.269 1.035 2.544 1.035 5.605v6.296h-22.206v2.285q0 3.45 1.854 5.39 1.984 1.94 5.39 1.94 2.587 0 4.312-.733 1.854-.82 2.587-2.328h7.761q-.56 2.112-1.897 3.88-1.294 1.768-3.277 3.018-1.897 1.208-4.355 1.898-2.372.646-5.131.646zm-7.244-21.3h14.488v-.991q0-3.45-1.897-5.347-1.897-1.94-5.347-1.94-3.406 0-5.39 1.94-1.854 1.897-1.854 5.304zm97.103 20.611h-27.898V27.81h27.898v6.898H588.55V46.35h17.808v6.943H588.55v12.892h20.007zm8.451-13.107V51.35q0-3.148.82-5.563.905-2.544 2.457-4.311 1.596-1.725 3.795-2.674t4.872-.948q3.751 0 6.21 1.768 2.457 1.724 3.017 4.829h.647q-.086-1.078-.13-2.156-.129-.949-.172-1.94V27.16h7.848v45.921h-7.546v-6.036h-.647q-.56 3.147-3.018 4.872-2.458 1.768-6.209 1.768-2.673 0-4.872-.949-2.2-.948-3.795-2.673-1.552-1.854-2.458-4.355-.819-2.587-.819-5.735zm14.747 6.855q3.105 0 4.916-1.854 1.854-1.897 1.854-5.002v-8.408q0-3.147-1.897-5.044-1.855-1.898-4.873-1.898-3.19 0-5.045 1.898-1.81 1.81-1.81 5.044v8.236q0 3.19 1.81 5.174 1.854 1.854 5.045 1.854m24.578 6.252v-7.2h12.418v-20.31h-10.823v-7.114h18.412v27.423h10.003v7.201zm10.133-43.98q0-1.812 1.208-2.976 1.25-1.164 3.277-1.164h1.638q2.027 0 3.234 1.164 1.25 1.164 1.25 2.975 0 1.898-1.25 3.019-1.294 1.12-3.277 1.12h-1.595q-2.027 0-3.277-1.12-1.208-1.121-1.208-3.018m25.01 16.47v-7.114h9.572V27.765h7.847v10.693h13.194v7.114h-13.194v16.816q0 1.639.949 2.63 1.035.95 2.802.95h8.797v7.114h-9.4q-5.088 0-8.063-2.89-2.932-2.931-2.932-7.804V45.572zm46.826 5.908v8.494q0 3.148 1.897 5.002 1.94 1.81 5.26 1.81 3.364 0 5.261-1.81 1.94-1.854 1.94-5.002V51.48q0-3.148-1.94-4.959-1.897-1.81-5.26-1.81-3.277 0-5.217 1.81t-1.94 4.959m-7.89 8.494V51.48q0-3.062 1.078-5.563 1.078-2.544 3.018-4.311 2.026-1.811 4.786-2.76 2.76-.992 6.166-.992t6.209.992q2.76.949 4.7 2.76 2.026 1.768 3.104 4.311 1.078 2.501 1.078 5.563v8.494q0 3.105-1.078 5.692-1.078 2.5-3.018 4.311-1.983 1.768-4.786 2.76-2.803.949-6.21.949t-6.165-.992-4.786-2.76q-1.94-1.854-3.019-4.355-1.078-2.5-1.078-5.605zm40.1 13.108V38.458h7.416v5.994h.56q.647-3.148 3.148-4.83 2.544-1.768 6.425-1.768 5.648 0 8.796 3.45t3.147 9.572v2.501h-8.278v-1.811q0-3.363-1.811-5.174-1.854-1.897-5.045-1.897-3.018 0-4.786 1.897-1.725 1.897-1.725 5.174v21.516z" class="a"/></svg>